<?xml version="1.0" encoding="utf-8"?>
<!-- Generator: Adobe Illustrator 24.0.1, SVG Export Plug-In . SVG Version: 6.00 Build 0)  -->
<svg version="1.1" id="Слой_1" xmlns="http://www.w3.org/2000/svg" xmlns:xlink="http://www.w3.org/1999/xlink" x="0px" y="0px"
	 viewBox="0 0 477 363" style="enable-background:new 0 0 477 363;" xml:space="preserve">
<style type="text/css">
	.st0{fill:#673AB7;}
	.st1{fill:url(#SVGID_1_);}
	.st2{fill:url(#SVGID_2_);}
	.st3{fill:url(#SVGID_3_);}
</style>
<g>
	<path class="st0" d="M413,363c0-34.24-27.76-62-62-62v62H413z"/>
</g>
<g>
	<path class="st0" d="M351,126c69.59,0,126-56.41,126-126L351,0V126z"/>
</g>
<g>
	<linearGradient id="SVGID_1_" gradientUnits="userSpaceOnUse" x1="-0.1067" y1="235.2412" x2="42.4929" y2="325.2956">
		<stop  offset="0" style="stop-color:#93278F"/>
		<stop  offset="0" style="stop-color:#E91E63"/>
		<stop  offset="0.1528" style="stop-color:#D82068"/>
		<stop  offset="0.4568" style="stop-color:#AB2475"/>
		<stop  offset="0.8797" style="stop-color:#632A8B"/>
		<stop  offset="1" style="stop-color:#4D2C91"/>
	</linearGradient>
	<path class="st1" d="M0,301l0-62c34.24,0,62,27.76,62,62h0l0,62C27.76,363,0,335.24,0,301L0,301z"/>
</g>
<g>
	<linearGradient id="SVGID_2_" gradientUnits="userSpaceOnUse" x1="369.5441" y1="24.5505" x2="390.3645" y2="38.3941">
		<stop  offset="0" style="stop-color:#93278F"/>
		<stop  offset="0" style="stop-color:#E91E63"/>
		<stop  offset="0.1748" style="stop-color:#BA2271"/>
		<stop  offset="0.3496" style="stop-color:#93267C"/>
		<stop  offset="0.5224" style="stop-color:#742885"/>
		<stop  offset="0.6906" style="stop-color:#5F2A8C"/>
		<stop  offset="0.8522" style="stop-color:#512C90"/>
		<stop  offset="1" style="stop-color:#4D2C91"/>
	</linearGradient>
	<circle class="st2" cx="381.5" cy="32.5" r="12.5"/>
</g>
<g>
	<linearGradient id="SVGID_3_" gradientUnits="userSpaceOnUse" x1="202.7738" y1="239.924" x2="320.2177" y2="41.0251">
		<stop  offset="0.0642" style="stop-color:#E91E63"/>
		<stop  offset="0.0687" style="stop-color:#E81E63"/>
		<stop  offset="0.231" style="stop-color:#B92271"/>
		<stop  offset="0.3933" style="stop-color:#92267D"/>
		<stop  offset="0.5528" style="stop-color:#742986"/>
		<stop  offset="0.7088" style="stop-color:#5E2A8C"/>
		<stop  offset="0.8598" style="stop-color:#512C90"/>
		<stop  offset="1" style="stop-color:#4D2C91"/>
	</linearGradient>
	<path class="st3" d="M333,126.07v-126c-69.59,0-126,56.41-126,126h0v126C276.59,252.07,333,195.66,333,126.07L333,126.07z"/>
</g>
<g>
	<path class="st0" d="M189,270.45V154.97C123.14,200.65,80,276.78,80,363h253V196.4C306.96,242.94,256.15,274.54,189,270.45z"/>
</g>
</svg>
